<svg xmlns="http://www.w3.org/2000/svg" viewBox="0 0 101.01 101.01"><defs><style>.cls-1{fill:none;stroke:#fff;}</style></defs><title>star_1</title><g id="Layer_2" data-name="Layer 2"><g id="Layer_1-2" data-name="Layer 1"><path class="cls-1" d="M15.14,15.15,96.69,69.64"/><path class="cls-1" d="M4.31,31.37,100.5,50.5"/><path class="cls-1" d="M.5,50.5,96.69,31.37"/><path class="cls-1" d="M4.31,69.64,85.85,15.15"/><path class="cls-1" d="M15.14,85.86,69.63,4.31"/><path class="cls-1" d="M31.37,96.7,50.5.5"/><path class="cls-1" d="M50.5,100.5,31.37,4.31"/><path class="cls-1" d="M69.63,96.7,15.14,15.15"/><path class="cls-1" d="M85.86,85.86,4.31,31.37"/><path class="cls-1" d="M96.69,69.64.5,50.5"/><path class="cls-1" d="M100.5,50.5,4.31,69.64"/><path class="cls-1" d="M96.69,31.37,15.15,85.86"/><path class="cls-1" d="M85.86,15.15,31.37,96.7"/><path class="cls-1" d="M69.63,4.31,50.5,100.5"/><path class="cls-1" d="M50.5.5,69.63,96.7"/><path class="cls-1" d="M31.37,4.31,85.86,85.86"/><circle class="cls-1" cx="50.5" cy="50.5" r="50"/></g></g></svg>