<svg xmlns="http://www.w3.org/2000/svg" viewBox="0 0 30.49 30.49"><defs><style>.cls-1,.cls-2{fill:none;stroke:#fff;stroke-width:0.5px;}.cls-1{opacity:0.15;}.cls-2{opacity:0.75;}</style></defs><title>start_10</title><g id="Layer_2" data-name="Layer 2"><g id="Layer_1-2" data-name="Layer 1"><path class="cls-1" d="M4.64,4.64,29.09,21"/><path class="cls-1" d="M1.39,9.51l28.84,5.73"/><path class="cls-1" d="M.25,15.24,29.09,9.51"/><path class="cls-1" d="M1.39,21,25.84,4.64"/><path class="cls-1" d="M4.64,25.84,21,1.39"/><path class="cls-1" d="M9.5,29.09,15.24.25"/><path class="cls-1" d="M15.24,30.23,9.5,1.39"/><path class="cls-1" d="M21,29.09,4.64,4.64"/><path class="cls-1" d="M25.84,25.84,1.39,9.51"/><path class="cls-1" d="M29.09,21,.25,15.24"/><path class="cls-1" d="M30.23,15.24,1.39,21"/><path class="cls-1" d="M29.09,9.51,4.64,25.84"/><path class="cls-1" d="M25.84,4.64,9.5,29.09"/><path class="cls-1" d="M21,1.39,15.24,30.23"/><path class="cls-1" d="M15.24.25,21,29.09"/><path class="cls-1" d="M9.5,1.39,25.84,25.84"/><circle class="cls-1" cx="15.24" cy="15.24" r="14.99"/><path class="cls-2" d="M6.42.25A6.17,6.17,0,0,1,.25,6.42"/><path class="cls-2" d="M24.06.25a6.17,6.17,0,0,0,6.17,6.17"/><path class="cls-2" d="M6.42,30.24A6.17,6.17,0,0,0,.25,24.07"/><path class="cls-2" d="M24.08,30.24a6.17,6.17,0,0,1,6.17-6.17"/></g></g></svg>